<svg width="41" height="41" viewBox="0 0 41 41" fill="none" xmlns="http://www.w3.org/2000/svg">
<path d="M30.4103 26.7486C29.9107 26.8961 29.1772 26.9127 28.3908 26.7986C27.5469 26.6762 26.686 26.4182 25.8398 26.0381C27.3487 25.8185 28.5193 25.8862 29.5205 26.2409C29.7577 26.325 30.1473 26.5497 30.4103 26.7486ZM21.9916 25.3645C21.9302 25.3813 21.8697 25.397 21.8095 25.4137C21.4035 25.5242 21.0085 25.6321 20.6278 25.728L20.1145 25.8582C19.0819 26.1195 18.0261 26.3864 16.9834 26.7042C17.3797 25.7486 17.7479 24.7824 18.1083 23.8378C18.3753 23.1386 18.6478 22.4242 18.9297 21.7191C19.0727 21.9553 19.2219 22.1916 19.3772 22.4284C20.0846 23.5059 20.9739 24.5021 21.9916 25.3645ZM19.365 14.5884C19.4319 15.7676 19.1775 16.9019 18.8043 17.9902C18.3446 16.6446 18.1304 15.1586 18.7051 13.959C18.8525 13.6515 18.9732 13.4871 19.0515 13.4013C19.1725 13.588 19.3316 14.0058 19.365 14.5884ZM13.9743 29.5255C13.716 29.9876 13.4523 30.4202 13.1821 30.8286C12.53 31.8114 11.4635 32.8637 10.9156 32.8637C10.8617 32.8637 10.7965 32.8549 10.7011 32.7543C10.6398 32.6899 10.6299 32.6438 10.6329 32.5809C10.6514 32.2195 11.1301 31.576 11.8236 30.9794C12.4531 30.4381 13.1646 29.9569 13.9743 29.5255ZM32.1548 26.7998C32.0711 25.5962 30.0451 24.8241 30.0251 24.8169C29.2419 24.5392 28.391 24.4043 27.4241 24.4043C26.3889 24.4043 25.2729 24.5541 23.8396 24.8889C22.5643 23.9849 21.4627 22.8531 20.6396 21.6001C20.2761 21.0465 19.9493 20.494 19.6645 19.9542C20.3599 18.2915 20.986 16.5038 20.8723 14.5016C20.7805 12.8961 20.0566 11.8177 19.072 11.8177C18.3967 11.8177 17.8152 12.3179 17.3424 13.3058C16.4989 15.0662 16.7206 17.3186 18.001 20.0064C17.5399 21.0895 17.1114 22.2124 16.6967 23.2994C16.1807 24.651 15.6491 26.0456 15.0498 27.3721C13.3694 28.037 11.9889 28.8434 10.8383 29.8333C10.0846 30.4807 9.17601 31.4704 9.12415 32.5035C9.09883 32.99 9.26566 33.4362 9.60468 33.7937C9.96485 34.1733 10.4173 34.3732 10.9149 34.3738C12.5582 34.3738 14.1397 32.116 14.4398 31.6632C15.0436 30.753 15.6088 29.7377 16.1626 28.5666C17.5574 28.0626 19.0439 27.6863 20.4846 27.3226L21.0006 27.1915C21.3884 27.0929 21.7916 26.9838 22.2051 26.8707C22.6426 26.7524 23.0928 26.6297 23.5504 26.5132C25.0298 27.454 26.6207 28.0677 28.1722 28.2929C29.4791 28.483 30.6397 28.3727 31.4253 27.9631C32.1323 27.5949 32.1712 27.0268 32.1548 26.7998ZM35.3374 37.1489C35.3374 39.353 33.3947 39.4889 33.0027 39.4934H7.93846C5.74227 39.4934 5.61003 37.5373 5.60583 37.1489L5.60554 3.85033C5.60554 1.644 7.5518 1.51023 7.93816 1.50581H24.8696L24.8786 1.51474V8.12206C24.8786 9.44807 25.6802 11.9586 28.7162 11.9586H35.2808L35.3372 12.0148L35.3374 37.1489ZM33.7811 10.4525H28.7173C26.5217 10.4525 26.3889 8.50718 26.3859 8.12227V3.0269L33.7811 10.4525ZM36.8433 37.1489V11.3936L26.3859 0.892798V0.843941H26.3359L25.496 0H7.93851C6.61075 0 4.09998 0.804969 4.09998 3.85104V37.1496C4.09998 38.4813 4.90251 41 7.93851 41H33.0051C34.3326 40.9997 36.8433 40.1947 36.8433 37.1489Z" fill="#AEC8A4"/>
</svg>
