<svg width="59" height="59" viewBox="0 0 59 59" fill="none" xmlns="http://www.w3.org/2000/svg">
<path d="M37.6955 9.21875H21.3027C18.0986 9.22119 15.0264 10.4951 12.7608 12.7608C10.4951 15.0264 9.22119 18.0986 9.21875 21.3027V37.6955C9.2207 40.8999 10.4944 43.9726 12.7601 46.2386C15.0258 48.5046 18.0983 49.7788 21.3027 49.7812H37.6955C40.8997 49.7783 43.9719 48.504 46.2375 46.2381C48.5031 43.9721 49.777 40.8997 49.7794 37.6955V21.3027C49.7779 18.0983 48.5043 15.0255 46.2385 12.7597C43.9726 10.4938 40.8999 9.22022 37.6955 9.21875ZM45.701 37.6955C45.7005 39.8185 44.8569 41.8545 43.3557 43.3557C41.8545 44.8569 39.8185 45.7005 37.6955 45.701H21.3027C20.2515 45.701 19.2105 45.4939 18.2394 45.0916C17.2682 44.6893 16.3858 44.0996 15.6426 43.3561C14.8993 42.6127 14.3098 41.7302 13.9077 40.7589C13.5056 39.7877 13.2987 38.7467 13.299 37.6955V21.3027C13.2987 20.2516 13.5056 19.2107 13.9077 18.2395C14.3099 17.2683 14.8994 16.3859 15.6427 15.6427C16.3859 14.8994 17.2683 14.3099 18.2395 13.9077C19.2107 13.5056 20.2516 13.2987 21.3027 13.299H37.6955C39.818 13.2995 41.8535 14.1429 43.3544 15.6437C44.8553 17.1446 45.6987 19.1801 45.6992 21.3027L45.701 37.6955Z" fill="#AEC8A4"/>
<path d="M29.4999 19.0127C23.7143 19.0127 19.0127 23.7161 19.0127 29.5C19.0127 35.2838 23.7161 39.9872 29.4999 39.9872C35.2838 39.9872 39.9872 35.2838 39.9872 29.5C39.9872 23.7161 35.2856 19.0127 29.4999 19.0127ZM29.4999 35.907C27.8007 35.9073 26.1709 35.2325 24.9692 34.0311C23.7675 32.8297 23.0922 31.2002 23.092 29.5009C23.0917 27.8017 23.7665 26.1719 24.9679 24.9702C26.1693 23.7685 27.7989 23.0932 29.4981 23.093C31.1974 23.0927 32.8271 23.7675 34.0288 24.9689C35.2306 26.1703 35.9058 27.7998 35.9061 29.4991C35.9063 31.1983 35.2315 32.8281 34.0301 34.0298C32.8288 35.2315 31.1992 35.9068 29.4999 35.907ZM40.0093 16.5771C40.5062 16.5775 40.9918 16.7252 41.4048 17.0014C41.8178 17.2777 42.1396 17.6702 42.3296 18.1293C42.5195 18.5885 42.5692 19.0936 42.4721 19.5809C42.3751 20.0682 42.1358 20.5158 41.7845 20.8672C41.4331 21.2185 40.9855 21.4578 40.4982 21.5548C40.0109 21.6519 39.5058 21.6022 39.0466 21.4123C38.5875 21.2223 38.195 20.9005 37.9187 20.4875C37.6425 20.0745 37.4948 19.5889 37.4944 19.092C37.4944 17.7055 38.4348 16.5771 40.0093 16.5771Z" fill="#AEC8A4"/>
</svg>
