<svg width="40" height="41" viewBox="0 0 40 41" fill="none" xmlns="http://www.w3.org/2000/svg">
<g clip-path="url(#clip0_3_28)">
<path fill-rule="evenodd" clip-rule="evenodd" d="M4.44444 40.5H35.5556C38.0102 40.5 40 38.5102 40 36.0556V4.94444C40 2.48985 38.0102 0.5 35.5556 0.5H4.44444C1.98985 0.5 0 2.48985 0 4.94444V36.0556C0 38.5102 1.98985 40.5 4.44444 40.5Z" fill="#AEC8A4"/>
<path fill-rule="evenodd" clip-rule="evenodd" d="M34.4444 34.9444H28.5087V24.8345C28.5087 22.0626 27.4554 20.5136 25.2615 20.5136C22.8748 20.5136 21.6278 22.1256 21.6278 24.8345V34.9444H15.9074V15.6852H21.6278V18.2794C21.6278 18.2794 23.3478 15.0968 27.4347 15.0968C31.5198 15.0968 34.4444 17.5914 34.4444 22.7507V34.9444ZM9.08296 13.1633C7.13446 13.1633 5.55554 11.572 5.55554 9.60943C5.55554 7.64685 7.13446 6.05554 9.08296 6.05554C11.0315 6.05554 12.6094 7.64685 12.6094 9.60943C12.6094 11.572 11.0315 13.1633 9.08296 13.1633ZM6.12918 34.9444H12.0941V15.6852H6.12918V34.9444Z" fill="white"/>
</g>
<defs>
<clipPath id="clip0_3_28">
<rect width="40" height="40" fill="white" transform="translate(0 0.5)"/>
</clipPath>
</defs>
</svg>
